<?xml version="1.0" encoding="utf-8"?>
<!-- Generator: Adobe Illustrator 24.0.1, SVG Export Plug-In . SVG Version: 6.00 Build 0)  -->
<svg version="1.1" id="Hotel_Overlook" xmlns="http://www.w3.org/2000/svg" xmlns:xlink="http://www.w3.org/1999/xlink" x="0px"
	 y="0px" viewBox="0 0 600 200" style="enable-background:new 0 0 600 200;" xml:space="preserve">
<style type="text/css">
	.st0{enable-background:new    ;}
	.st1{fill:#AAAAAA;}
	.st2{fill:#FF0000;}
	.st3{fill:none;stroke:#AAAAAA;stroke-miterlimit:10;}
</style>
<g class="st0">
	<path class="st1" d="M51,114.3h-5V94.1H23.4v20.2h-5V71.5h5v18.2H46V71.5h5V114.3z"/>
	<path class="st1" d="M99.9,92.8c0,6.9-1.7,12.2-5.2,16.2c-3.5,3.9-8.3,5.9-14.5,5.9c-6.3,0-11.2-1.9-14.6-5.8s-5.1-9.3-5.1-16.3
		c0-7,1.7-12.4,5.2-16.2c3.4-3.8,8.3-5.8,14.6-5.8c6.2,0,11,2,14.4,5.9S99.9,85.9,99.9,92.8z M65.8,92.8c0,5.8,1.2,10.2,3.7,13.2
		c2.5,3,6.1,4.5,10.8,4.5c4.7,0,8.3-1.5,10.8-4.5c2.4-3,3.6-7.4,3.6-13.2c0-5.8-1.2-10.1-3.6-13.1c-2.4-3-6-4.5-10.7-4.5
		c-4.7,0-8.4,1.5-10.8,4.5C67,82.7,65.8,87.1,65.8,92.8z"/>
	<path class="st1" d="M122.6,114.3h-5V75.9h-13.6v-4.4h32.1v4.4h-13.6V114.3z"/>
	<path class="st1" d="M166.5,114.3h-23.9V71.5h23.9v4.4h-18.9v13.8h17.8v4.4h-17.8v15.8h18.9V114.3z"/>
	<path class="st1" d="M176,114.3V71.5h5v38.3h18.9v4.5H176z"/>
	<path class="st1" d="M259.9,92.8c0,6.9-1.7,12.2-5.2,16.2c-3.5,3.9-8.3,5.9-14.5,5.9c-6.3,0-11.2-1.9-14.6-5.8s-5.1-9.3-5.1-16.3
		c0-7,1.7-12.4,5.2-16.2c3.4-3.8,8.3-5.8,14.6-5.8c6.2,0,11,2,14.4,5.9S259.9,85.9,259.9,92.8z M225.8,92.8c0,5.8,1.2,10.2,3.7,13.2
		c2.5,3,6.1,4.5,10.8,4.5c4.7,0,8.3-1.5,10.8-4.5c2.4-3,3.6-7.4,3.6-13.2c0-5.8-1.2-10.1-3.6-13.1c-2.4-3-6-4.5-10.7-4.5
		c-4.7,0-8.4,1.5-10.8,4.5C227,82.7,225.8,87.1,225.8,92.8z"/>
	<path class="st1" d="M293.9,71.5h5.4l-15.4,42.8h-4.9l-15.4-42.8h5.3l9.8,27.7c1.1,3.2,2,6.3,2.7,9.3c0.7-3.2,1.6-6.3,2.8-9.5
		L293.9,71.5z"/>
	<path class="st1" d="M329.1,114.3h-23.9V71.5h23.9v4.4h-18.9v13.8h17.8v4.4h-17.8v15.8h18.9V114.3z"/>
	<path class="st1" d="M343.5,96.5v17.8h-5V71.5h11.7c5.3,0,9.1,1,11.6,3s3.8,5,3.8,9.1c0,5.7-2.9,9.5-8.6,11.5l11.6,19.2h-5.9
		l-10.4-17.8H343.5z M343.5,92.2h6.8c3.5,0,6.1-0.7,7.7-2.1s2.5-3.5,2.5-6.3c0-2.8-0.8-4.9-2.5-6.1s-4.4-1.9-8-1.9h-6.5V92.2z"/>
	<path class="st1" d="M375.6,114.3V71.5h5v38.3h18.9v4.5H375.6z"/>
	<path class="st1" d="M444,92.8c0,6.9-1.7,12.2-5.2,16.2s-8.3,5.9-14.5,5.9c-6.3,0-11.2-1.9-14.6-5.8s-5.1-9.3-5.1-16.3
		c0-7,1.7-12.4,5.2-16.2s8.3-5.8,14.6-5.8c6.2,0,11,2,14.4,5.9S444,85.9,444,92.8z M409.8,92.8c0,5.8,1.2,10.2,3.7,13.2
		s6.1,4.5,10.8,4.5c4.7,0,8.3-1.5,10.8-4.5s3.6-7.4,3.6-13.2c0-5.8-1.2-10.1-3.6-13.1s-6-4.5-10.7-4.5c-4.7,0-8.4,1.5-10.8,4.5
		S409.8,87.1,409.8,92.8z"/>
	<path class="st1" d="M490.7,92.8c0,6.9-1.7,12.2-5.2,16.2s-8.3,5.9-14.5,5.9c-6.3,0-11.2-1.9-14.6-5.8s-5.1-9.3-5.1-16.3
		c0-7,1.7-12.4,5.2-16.2s8.3-5.8,14.6-5.8c6.2,0,11,2,14.4,5.9S490.7,85.9,490.7,92.8z M456.6,92.8c0,5.8,1.2,10.2,3.7,13.2
		s6.1,4.5,10.8,4.5c4.7,0,8.3-1.5,10.8-4.5s3.6-7.4,3.6-13.2c0-5.8-1.2-10.1-3.6-13.1s-6-4.5-10.7-4.5c-4.7,0-8.4,1.5-10.8,4.5
		S456.6,87.1,456.6,92.8z"/>
	<path class="st1" d="M531.2,114.3h-5.9l-15.6-20.8l-4.5,4v16.8h-5V71.5h5v21.2l19.4-21.2h5.9l-17.2,18.6L531.2,114.3z"/>
</g>
<polygon class="st2" points="267.7,159.8 278.4,153.3 289,159.8 286.1,147.7 295.6,139.5 283.2,138.6 278.4,127 273.6,138.6 
	261.1,139.5 270.6,147.7 "/>
<polygon class="st2" points="306.4,159.8 317.1,153.3 327.7,159.8 324.8,147.7 334.3,139.5 321.9,138.6 317.1,127 312.3,138.6 
	299.8,139.5 309.3,147.7 "/>
<polygon class="st2" points="345.1,159.8 355.8,153.3 366.4,159.8 363.5,147.7 373,139.5 360.6,138.6 355.8,127 351,138.6 
	338.5,139.5 348,147.7 "/>
<polygon class="st2" points="383.8,159.8 394.5,153.3 405.1,159.8 402.2,147.7 411.7,139.5 399.3,138.6 394.5,127 389.7,138.6 
	377.2,139.5 386.7,147.7 "/>
<polygon class="st2" points="229,159.8 239.7,153.3 250.4,159.8 247.4,147.7 257,139.5 244.5,138.6 239.7,127 234.9,138.6 
	222.4,139.5 231.9,147.7 "/>
<line class="st3" x1="519" y1="39.5" x2="175.5" y2="39.5"/>
<line class="st3" x1="222.5" y1="144.5" x2="175.5" y2="144.5"/>
<line class="st3" x1="518.5" y1="144.5" x2="411.5" y2="144.5"/>
</svg>
